
      <svg data-logo="logo" xmlns="http://www.w3.org/2000/svg" viewBox="0 0 228 43">
        <g id="logogram" transform="translate(0, 1) rotate(0)"><path d="M18.529 14.2867C19.7573 13.9362 19.8794 10.5388 18.8016 6.69839C17.7239 2.85797 15.8544 0.0288177 14.6261 0.379292C13.3977 0.729766 13.2757 4.12714 14.3534 7.96759C15.4312 11.8079 17.3007 14.6371 18.529 14.2867Z" fill="black"/><path d="M26.1248 8.08707C27.2775 4.26882 27.2219 0.869674 26.0007 0.49485C24.7794 0.120017 22.855 2.91144 21.7023 6.72968C20.5497 10.5479 20.6052 13.9471 21.8265 14.3219C23.0477 14.6967 24.9722 11.9053 26.1248 8.08707Z" fill="black"/><path d="M15.7317 16.0579C16.5771 15.0934 14.858 12.1689 11.8921 9.5258C8.92614 6.88272 5.83646 5.52194 4.99109 6.48642C4.14571 7.45092 5.86478 10.3754 8.83075 13.0185C11.7967 15.6616 14.8864 17.0224 15.7317 16.0579Z" fill="black"/><path d="M31.5523 13.2463C34.5689 10.6622 36.3444 7.77208 35.5178 6.79115C34.6913 5.81019 31.5758 7.10985 28.5592 9.6939C25.5426 12.278 23.7672 15.1681 24.5937 16.1491C25.4202 17.13 28.5357 15.8304 31.5523 13.2463Z" fill="black"/><path d="M14.3271 19.0886C14.5213 17.8164 11.5072 16.2928 7.5951 15.6857C3.68285 15.0785 0.353953 15.6177 0.15976 16.8899C-0.0344332 18.1621 2.97961 19.6855 6.89183 20.2927C10.804 20.8999 14.1329 20.3607 14.3271 19.0886Z" fill="black"/><path d="M33.3469 20.5473C37.2702 20.018 40.3134 18.5548 40.1441 17.2789C39.9749 16.0031 36.6572 15.398 32.7338 15.9271C28.8106 16.4564 25.7673 17.9197 25.9366 19.1955C26.1059 20.4713 29.4235 21.0765 33.3469 20.5473Z" fill="black"/><path d="M9.1521 27.4532C12.7688 25.8311 15.28 23.5628 14.7611 22.3867C14.2424 21.2106 10.89 21.5722 7.2733 23.1943C3.65667 24.8164 1.1454 27.0847 1.66421 28.2608C2.18302 29.4369 5.53546 29.0753 9.1521 27.4532Z" fill="black"/><path d="M38.408 28.6255C38.9497 27.46 36.4833 25.1421 32.8991 23.4484C29.3149 21.7547 25.9702 21.3266 25.4285 22.4921C24.8868 23.6577 27.3532 25.9755 30.9374 27.6692C34.5215 29.3629 37.8663 29.7911 38.408 28.6255Z" fill="black"/><path d="M14.9029 32.2399C17.0755 28.9036 17.9717 25.6262 16.9047 24.9198C15.8375 24.2133 13.2112 26.3451 11.0387 29.6814C8.86604 33.0177 7.96985 36.2949 9.03689 37.0015C10.104 37.708 12.7302 35.5762 14.9029 32.2399Z" fill="black"/><path d="M30.8687 37.2253C31.9494 36.5402 31.1175 33.2456 29.0106 29.8668C26.9036 26.488 24.3195 24.3044 23.2388 24.9895C22.1582 25.6746 22.9901 28.9692 25.097 32.348C27.2039 35.7268 29.7881 37.9105 30.8687 37.2253Z" fill="black"/><path d="M22.3061 33.1463C22.3448 29.1553 21.3414 25.9098 20.0649 25.8972C18.7884 25.8846 17.7222 29.1098 17.6835 33.1007C17.6448 37.0918 18.6483 40.3374 19.9247 40.3499C21.2013 40.3625 22.2675 37.1374 22.3061 33.1463Z" fill="black"/></g>
        <g id="logotype" transform="translate(44, 7)"><path fill="#007AFF" d="M12.49 4.43L19.31 4.43L28.17 29L21.94 29L14.73 7.54L17.04 7.54L9.79 29L3.60 29L12.49 4.43ZM7.41 24.66L8.88 20.07L22.32 20.07L23.83 24.66L7.41 24.66ZM41.89 29.25L41.89 29.25Q39.68 29.25 38 28.04Q36.32 26.83 35.62 24.70L35.62 24.70L35.62 26.02Q35.62 27.43 34.85 28.21Q34.08 29 32.65 29L32.65 29L29.71 29L29.71 3.10L35.62 3.10L35.62 13.81Q36.32 11.64 38 10.43Q39.68 9.22 41.89 9.22L41.89 9.22Q44.44 9.22 46.33 10.55Q48.22 11.88 49.25 14.16Q50.29 16.43 50.29 19.23L50.29 19.23Q50.29 22.07 49.25 24.33Q48.22 26.59 46.33 27.91Q44.44 29.25 41.89 29.25ZM39.96 24.06L39.96 24.06Q41.15 24.06 42.13 23.50Q43.11 22.95 43.69 21.86Q44.27 20.77 44.27 19.23L44.27 19.23Q44.27 17.70 43.69 16.61Q43.11 15.52 42.13 14.95Q41.15 14.37 39.96 14.37L39.96 14.37Q38.80 14.37 37.81 14.96Q36.81 15.56 36.22 16.63Q35.62 17.70 35.62 19.23L35.62 19.23Q35.62 20.77 36.22 21.86Q36.81 22.95 37.81 23.50Q38.80 24.06 39.96 24.06ZM58.16 29L52.24 29L52.24 3.10L58.16 3.10L58.16 13.63Q58.58 12.27 59.52 11.29Q60.47 10.31 61.71 9.77Q62.95 9.22 64.28 9.22L64.28 9.22Q66.53 9.22 68.17 10.24Q69.81 11.25 70.72 13.11Q71.63 14.96 71.63 17.52L71.63 17.52L71.63 29L65.72 29L65.72 18.50Q65.72 16.50 64.70 15.37Q63.69 14.23 61.97 14.23L61.97 14.23Q60.82 14.23 59.96 14.82Q59.10 15.42 58.63 16.47Q58.16 17.52 58.16 18.85L58.16 18.85L58.16 29ZM80.39 29L74.50 29L74.50 9.47L80.39 9.47L80.39 29ZM77.48 7.40L77.48 7.40Q75.77 7.40 74.68 6.42Q73.59 5.44 73.59 3.97L73.59 3.97Q73.59 2.47 74.68 1.47Q75.77 0.47 77.48 0.47L77.48 0.47Q79.16 0.47 80.25 1.47Q81.33 2.47 81.33 3.97L81.33 3.97Q81.33 5.44 80.25 6.42Q79.16 7.40 77.48 7.40ZM100.30 23.05L106.43 4.43L112.69 4.43L103.98 29L96.59 29L87.84 4.43L94.18 4.43L100.30 23.05ZM121.65 29.25L121.65 29.25Q119.52 29.25 117.57 28.58Q115.63 27.91 114.14 26.64Q112.66 25.36 111.80 23.54Q110.94 21.72 110.94 19.38L110.94 19.38Q110.94 17.13 111.76 15.28Q112.59 13.42 114.00 12.06Q115.42 10.69 117.29 9.96Q119.17 9.22 121.27 9.22L121.27 9.22Q122.98 9.22 124.54 9.68Q126.10 10.13 127.34 11.01Q128.58 11.88 129.30 13.07Q130.02 14.26 130.02 15.73L130.02 15.73Q130.02 17.59 128.97 18.81Q127.92 20.04 126.22 20.74Q124.52 21.44 122.51 21.74Q120.50 22.04 118.54 22L118.54 22Q118.29 22 117.96 21.98Q117.63 21.96 117.35 21.95Q117.07 21.93 116.93 21.93L116.93 21.93Q117.14 22.73 117.82 23.38Q118.50 24.03 119.55 24.41Q120.60 24.80 121.72 24.80L121.72 24.80Q122.84 24.80 123.87 24.41Q124.91 24.03 125.75 23.43Q126.59 22.84 127.18 22.11L127.18 22.11L130.96 25.08Q129.91 26.48 128.41 27.41Q126.90 28.34 125.17 28.79Q123.44 29.25 121.65 29.25ZM118.57 18.11L118.57 18.11Q119.52 18.11 120.53 18.01Q121.55 17.91 122.40 17.64Q123.26 17.38 123.80 16.91Q124.35 16.43 124.35 15.70L124.35 15.70Q124.35 15.10 123.93 14.65Q123.51 14.19 122.81 13.95Q122.11 13.70 121.30 13.70L121.30 13.70Q119.90 13.70 118.85 14.37Q117.80 15.03 117.24 16.03Q116.68 17.03 116.61 18.04L116.61 18.04Q116.93 18.08 117.47 18.10Q118.01 18.11 118.57 18.11ZM138.45 29L132.53 29L132.53 9.47L138.45 9.47L138.45 29ZM138.45 20.60L137.54 20.60L138.45 14.19Q139.08 11.92 140.66 10.61Q142.23 9.29 144.68 9.29L144.68 9.29L144.68 15.45Q144.30 15.38 143.95 15.35Q143.59 15.31 143.25 15.31L143.25 15.31Q141.95 15.31 140.87 15.93Q139.78 16.54 139.12 17.71Q138.45 18.88 138.45 20.60L138.45 20.60ZM153.85 29.25L153.85 29.25Q151.72 29.25 149.95 28.58Q148.18 27.91 146.99 26.71Q145.80 25.50 145.28 23.93L145.28 23.93L150.74 22.70Q150.98 23.71 151.80 24.29Q152.63 24.87 153.81 24.87L153.81 24.87Q154.97 24.87 155.60 24.40Q156.23 23.93 156.23 23.26L156.23 23.26Q156.23 22.45 155.46 22.05Q154.69 21.65 153.45 21.37Q152.21 21.09 150.84 20.77Q149.47 20.46 148.25 19.85Q147.03 19.23 146.25 18.15Q145.49 17.06 145.49 15.31L145.49 15.31Q145.49 13.63 146.41 12.27Q147.34 10.90 149.11 10.06Q150.88 9.22 153.43 9.22L153.43 9.22Q155.56 9.22 157.19 9.89Q158.82 10.55 159.89 11.73Q160.96 12.90 161.41 14.51L161.41 14.51L156.19 15.87Q155.99 14.82 155.25 14.23Q154.52 13.63 153.29 13.63L153.29 13.63Q152.17 13.63 151.61 14.05Q151.05 14.47 151.05 15.17L151.05 15.17Q151.05 15.94 151.82 16.38Q152.59 16.82 153.81 17.10Q155.04 17.38 156.41 17.75Q157.77 18.11 159.00 18.74Q160.22 19.38 160.99 20.49Q161.76 21.61 161.76 23.40L161.76 23.40Q161.76 25.08 160.80 26.41Q159.84 27.74 158.05 28.49Q156.27 29.25 153.85 29.25ZM173.42 29.25L173.42 29.25Q171.28 29.25 169.34 28.58Q167.40 27.91 165.91 26.64Q164.42 25.36 163.56 23.54Q162.71 21.72 162.71 19.38L162.71 19.38Q162.71 17.13 163.53 15.28Q164.35 13.42 165.77 12.06Q167.19 10.69 169.06 9.96Q170.93 9.22 173.03 9.22L173.03 9.22Q174.75 9.22 176.30 9.68Q177.86 10.13 179.10 11.01Q180.35 11.88 181.06 13.07Q181.78 14.26 181.78 15.73L181.78 15.73Q181.78 17.59 180.73 18.81Q179.68 20.04 177.98 20.74Q176.29 21.44 174.27 21.74Q172.26 22.04 170.30 22L170.30 22Q170.06 22 169.72 21.98Q169.39 21.96 169.11 21.95Q168.83 21.93 168.69 21.93L168.69 21.93Q168.90 22.73 169.58 23.38Q170.27 24.03 171.32 24.41Q172.37 24.80 173.49 24.80L173.49 24.80Q174.61 24.80 175.64 24.41Q176.67 24.03 177.51 23.43Q178.35 22.84 178.95 22.11L178.95 22.11L182.73 25.08Q181.68 26.48 180.17 27.41Q178.67 28.34 176.93 28.79Q175.20 29.25 173.42 29.25ZM170.34 18.11L170.34 18.11Q171.28 18.11 172.30 18.01Q173.31 17.91 174.17 17.64Q175.03 17.38 175.57 16.91Q176.11 16.43 176.11 15.70L176.11 15.70Q176.11 15.10 175.69 14.65Q175.27 14.19 174.57 13.95Q173.87 13.70 173.07 13.70L173.07 13.70Q171.67 13.70 170.62 14.37Q169.57 15.03 169.01 16.03Q168.45 17.03 168.38 18.04L168.38 18.04Q168.69 18.08 169.23 18.10Q169.78 18.11 170.34 18.11Z"/></g>
        
      </svg>
    