
      <svg data-logo="logo" xmlns="http://www.w3.org/2000/svg" viewBox="0 0 205 43">
        <g id="logogram" transform="translate(0, 1) rotate(0)"><path d="M18.529 14.2867C19.7573 13.9362 19.8794 10.5388 18.8016 6.69839C17.7239 2.85797 15.8544 0.0288177 14.6261 0.379292C13.3977 0.729766 13.2757 4.12714 14.3534 7.96759C15.4312 11.8079 17.3007 14.6371 18.529 14.2867Z" fill="black"/><path d="M26.1248 8.08707C27.2775 4.26882 27.2219 0.869674 26.0007 0.49485C24.7794 0.120017 22.855 2.91144 21.7023 6.72968C20.5497 10.5479 20.6052 13.9471 21.8265 14.3219C23.0477 14.6967 24.9722 11.9053 26.1248 8.08707Z" fill="black"/><path d="M15.7317 16.0579C16.5771 15.0934 14.858 12.1689 11.8921 9.5258C8.92614 6.88272 5.83646 5.52194 4.99109 6.48642C4.14571 7.45092 5.86478 10.3754 8.83075 13.0185C11.7967 15.6616 14.8864 17.0224 15.7317 16.0579Z" fill="black"/><path d="M31.5523 13.2463C34.5689 10.6622 36.3444 7.77208 35.5178 6.79115C34.6913 5.81019 31.5758 7.10985 28.5592 9.6939C25.5426 12.278 23.7672 15.1681 24.5937 16.1491C25.4202 17.13 28.5357 15.8304 31.5523 13.2463Z" fill="black"/><path d="M14.3271 19.0886C14.5213 17.8164 11.5072 16.2928 7.5951 15.6857C3.68285 15.0785 0.353953 15.6177 0.15976 16.8899C-0.0344332 18.1621 2.97961 19.6855 6.89183 20.2927C10.804 20.8999 14.1329 20.3607 14.3271 19.0886Z" fill="black"/><path d="M33.3469 20.5473C37.2702 20.018 40.3134 18.5548 40.1441 17.2789C39.9749 16.0031 36.6572 15.398 32.7338 15.9271C28.8106 16.4564 25.7673 17.9197 25.9366 19.1955C26.1059 20.4713 29.4235 21.0765 33.3469 20.5473Z" fill="black"/><path d="M9.1521 27.4532C12.7688 25.8311 15.28 23.5628 14.7611 22.3867C14.2424 21.2106 10.89 21.5722 7.2733 23.1943C3.65667 24.8164 1.1454 27.0847 1.66421 28.2608C2.18302 29.4369 5.53546 29.0753 9.1521 27.4532Z" fill="black"/><path d="M38.408 28.6255C38.9497 27.46 36.4833 25.1421 32.8991 23.4484C29.3149 21.7547 25.9702 21.3266 25.4285 22.4921C24.8868 23.6577 27.3532 25.9755 30.9374 27.6692C34.5215 29.3629 37.8663 29.7911 38.408 28.6255Z" fill="black"/><path d="M14.9029 32.2399C17.0755 28.9036 17.9717 25.6262 16.9047 24.9198C15.8375 24.2133 13.2112 26.3451 11.0387 29.6814C8.86604 33.0177 7.96985 36.2949 9.03689 37.0015C10.104 37.708 12.7302 35.5762 14.9029 32.2399Z" fill="black"/><path d="M30.8687 37.2253C31.9494 36.5402 31.1175 33.2456 29.0106 29.8668C26.9036 26.488 24.3195 24.3044 23.2388 24.9895C22.1582 25.6746 22.9901 28.9692 25.097 32.348C27.2039 35.7268 29.7881 37.9105 30.8687 37.2253Z" fill="black"/><path d="M22.3061 33.1463C22.3448 29.1553 21.3414 25.9098 20.0649 25.8972C18.7884 25.8846 17.7222 29.1098 17.6835 33.1007C17.6448 37.0918 18.6483 40.3374 19.9247 40.3499C21.2013 40.3625 22.2675 37.1374 22.3061 33.1463Z" fill="black"/></g>
        <g id="logotype" transform="translate(44, 7)"><path fill="#007AFF" d="M12.49 4.43L19.31 4.43L28.17 29L21.94 29L14.73 7.54L17.04 7.54L9.79 29L3.60 29L12.49 4.43ZM7.41 24.66L8.88 20.07L22.32 20.07L23.83 24.66L7.41 24.66ZM41.89 29.25L41.89 29.25Q39.68 29.25 38 28.04Q36.32 26.83 35.62 24.70L35.62 24.70L35.62 26.02Q35.62 27.43 34.85 28.21Q34.08 29 32.65 29L32.65 29L29.71 29L29.71 3.10L35.62 3.10L35.62 13.81Q36.32 11.64 38 10.43Q39.68 9.22 41.89 9.22L41.89 9.22Q44.44 9.22 46.33 10.55Q48.22 11.88 49.25 14.16Q50.29 16.43 50.29 19.23L50.29 19.23Q50.29 22.07 49.25 24.33Q48.22 26.59 46.33 27.91Q44.44 29.25 41.89 29.25ZM39.96 24.06L39.96 24.06Q41.15 24.06 42.13 23.50Q43.11 22.95 43.69 21.86Q44.27 20.77 44.27 19.23L44.27 19.23Q44.27 17.70 43.69 16.61Q43.11 15.52 42.13 14.95Q41.15 14.37 39.96 14.37L39.96 14.37Q38.80 14.37 37.81 14.96Q36.81 15.56 36.22 16.63Q35.62 17.70 35.62 19.23L35.62 19.23Q35.62 20.77 36.22 21.86Q36.81 22.95 37.81 23.50Q38.80 24.06 39.96 24.06ZM58.16 29L52.24 29L52.24 3.10L58.16 3.10L58.16 13.63Q58.58 12.27 59.52 11.29Q60.47 10.31 61.71 9.77Q62.95 9.22 64.28 9.22L64.28 9.22Q66.53 9.22 68.17 10.24Q69.81 11.25 70.72 13.11Q71.63 14.96 71.63 17.52L71.63 17.52L71.63 29L65.72 29L65.72 18.50Q65.72 16.50 64.70 15.37Q63.69 14.23 61.97 14.23L61.97 14.23Q60.82 14.23 59.96 14.82Q59.10 15.42 58.63 16.47Q58.16 17.52 58.16 18.85L58.16 18.85L58.16 29ZM80.39 29L74.50 29L74.50 9.47L80.39 9.47L80.39 29ZM77.48 7.40L77.48 7.40Q75.77 7.40 74.68 6.42Q73.59 5.44 73.59 3.97L73.59 3.97Q73.59 2.47 74.68 1.47Q75.77 0.47 77.48 0.47L77.48 0.47Q79.16 0.47 80.25 1.47Q81.33 2.47 81.33 3.97L81.33 3.97Q81.33 5.44 80.25 6.42Q79.16 7.40 77.48 7.40ZM83.43 29L83.43 4.43L99.36 4.43L99.36 9.15L89.34 9.15L89.34 14.44L96.87 14.44L96.87 19.02L89.34 19.02L89.34 29L83.43 29ZM109.16 29.25L109.16 29.25Q106.29 29.25 104.01 28.04Q101.74 26.83 100.42 24.55Q99.11 22.28 99.11 19.23L99.11 19.23Q99.11 16.16 100.44 13.91Q101.77 11.67 104.06 10.45Q106.36 9.22 109.23 9.22L109.23 9.22Q112.13 9.22 114.42 10.43Q116.72 11.64 118.05 13.90Q119.38 16.16 119.38 19.23L119.38 19.23Q119.38 22.28 118.01 24.55Q116.65 26.83 114.34 28.04Q112.03 29.25 109.16 29.25ZM109.16 24.13L109.16 24.13Q110.24 24.13 111.20 23.59Q112.17 23.05 112.76 21.96Q113.36 20.88 113.36 19.23L113.36 19.23Q113.36 17.55 112.76 16.49Q112.17 15.42 111.24 14.89Q110.31 14.37 109.23 14.37L109.23 14.37Q108.14 14.37 107.21 14.89Q106.29 15.42 105.71 16.49Q105.13 17.55 105.13 19.23L105.13 19.23Q105.13 20.88 105.67 21.96Q106.22 23.05 107.14 23.59Q108.07 24.13 109.16 24.13ZM121.34 22.95L121.34 22.95L121.34 3.10L127.25 3.10L127.25 22.66Q127.25 23.43 127.72 23.82Q128.20 24.20 128.83 24.20L128.83 24.20Q129.25 24.20 129.63 24.06L129.63 24.06L130.58 28.61Q129.18 29.25 127.43 29.25L127.43 29.25Q125.96 29.25 124.56 28.65Q123.16 28.05 122.25 26.67Q121.34 25.29 121.34 22.95ZM137.82 29L131.94 29L131.94 9.47L137.82 9.47L137.82 29ZM134.92 7.40L134.92 7.40Q133.20 7.40 132.12 6.42Q131.03 5.44 131.03 3.97L131.03 3.97Q131.03 2.47 132.12 1.47Q133.20 0.47 134.92 0.47L134.92 0.47Q136.60 0.47 137.68 1.47Q138.77 2.47 138.77 3.97L138.77 3.97Q138.77 5.44 137.68 6.42Q136.60 7.40 134.92 7.40ZM149.76 29.25L149.76 29.25Q146.89 29.25 144.61 28.04Q142.34 26.83 141.02 24.55Q139.71 22.28 139.71 19.23L139.71 19.23Q139.71 16.16 141.04 13.91Q142.37 11.67 144.66 10.45Q146.96 9.22 149.83 9.22L149.83 9.22Q152.73 9.22 155.02 10.43Q157.32 11.64 158.65 13.90Q159.98 16.16 159.98 19.23L159.98 19.23Q159.98 22.28 158.61 24.55Q157.25 26.83 154.94 28.04Q152.63 29.25 149.76 29.25ZM149.76 24.13L149.76 24.13Q150.84 24.13 151.80 23.59Q152.77 23.05 153.36 21.96Q153.96 20.88 153.96 19.23L153.96 19.23Q153.96 17.55 153.36 16.49Q152.77 15.42 151.84 14.89Q150.91 14.37 149.83 14.37L149.83 14.37Q148.74 14.37 147.81 14.89Q146.89 15.42 146.31 16.49Q145.73 17.55 145.73 19.23L145.73 19.23Q145.73 20.88 146.27 21.96Q146.82 23.05 147.74 23.59Q148.67 24.13 149.76 24.13Z"/></g>
        
      </svg>
    